<svg width="42" height="42" viewBox="0 0 42 42" fill="none" xmlns="http://www.w3.org/2000/svg">
<path d="M21.05 14.4375V15.4375H22.05H23.15V16.0625H20.95V11.5H21.05V14.4375ZM32.0246 9.959L32.0249 9.95919C32.3441 10.225 32.6 10.743 32.6 11.3753V41H26.2V30.1875C26.2 29.1298 25.4791 27.875 24.15 27.875H17.85C16.5209 27.875 15.8 29.1298 15.8 30.1875V41H9.4V11.3746C9.4 11.3746 9.4 11.3745 9.4 11.3745C9.40007 11.0718 9.46027 10.781 9.56785 10.5298C9.67557 10.2782 9.82154 10.0872 9.97535 9.959L20.475 1.20903C20.4751 1.20896 20.4751 1.2089 20.4752 1.20883C20.4753 1.2088 20.4753 1.20876 20.4754 1.20873C20.6566 1.05795 20.8394 1 21 1C21.1606 1 21.3434 1.05795 21.5246 1.20873C21.5247 1.20876 21.5247 1.2088 21.5248 1.20883C21.5249 1.2089 21.5249 1.20897 21.525 1.20903L32.0246 9.959ZM1 40.6875V18.375C1 17.258 1.68939 16.75 2.1 16.75H5.3V41H1.09586C1.0936 40.9974 1.09108 40.9944 1.08832 40.991C1.04993 40.943 1 40.8391 1 40.6875ZM1.11033 41.0141C1.11033 41.0141 1.10982 41.0138 1.10882 41.013C1.10983 41.0136 1.11033 41.014 1.11033 41.0141ZM14.75 14.4375C14.75 18.3942 17.3517 22 21 22C24.6483 22 27.25 18.3942 27.25 14.4375C27.25 10.4808 24.6483 6.87501 21 6.87501C17.3517 6.87501 14.75 10.4808 14.75 14.4375ZM36.7 41V16.75H39.9C40.3106 16.75 41 17.258 41 18.375V40.6875C41 40.8391 40.9501 40.943 40.9117 40.991C40.9089 40.9944 40.9064 40.9974 40.9041 41H36.7ZM40.8897 41.0141C40.8897 41.014 40.8902 41.0136 40.8912 41.013C40.8902 41.0138 40.8897 41.0141 40.8897 41.0141Z" fill="white" stroke="black" stroke-width="2"/>
</svg>
