<svg width="57" height="40" viewBox="0 0 57 40" fill="none" xmlns="http://www.w3.org/2000/svg">
<path d="M25.575 9.8C25.575 14.3629 21.8097 18.1 17.1 18.1C12.3903 18.1 8.625 14.3629 8.625 9.8C8.625 5.23709 12.3903 1.5 17.1 1.5C21.8097 1.5 25.575 5.2371 25.575 9.8ZM17.1 25.3C19.4106 25.3 21.5775 24.774 23.5291 23.9H23.94C28.8011 23.9 32.7 27.7683 32.7 32.48V35C32.7 36.4654 31.4819 37.7 29.925 37.7H4.275C2.71813 37.7 1.5 36.4654 1.5 35V32.48C1.5 27.7683 5.39891 23.9 10.26 23.9H10.6721C12.6285 24.773 14.7873 25.3 17.1 25.3ZM49.8 11.2C49.8 14.9842 46.667 18.1 42.75 18.1C38.833 18.1 35.7 14.9842 35.7 11.2C35.7 7.41585 38.833 4.3 42.75 4.3C46.667 4.3 49.8 7.41585 49.8 11.2ZM42.75 24.6C44.2495 24.6 45.6442 24.3153 46.9285 23.9H47.025C51.7347 23.9 55.5 27.6371 55.5 32.2C55.5 33.6654 54.2819 34.9 52.725 34.9H38.55V32.48C38.55 29.4296 37.5589 26.6243 35.9161 24.3139C36.728 24.0475 37.584 23.9 38.475 23.9H38.5715C39.8558 24.3153 41.2505 24.6 42.75 24.6Z" fill="#FFFEFE" stroke="black" stroke-width="3"/>
</svg>
