<svg width="56" height="56" viewBox="0 0 56 56" fill="none" xmlns="http://www.w3.org/2000/svg">
<g id="&#240;&#159;&#166;&#134; icon &#34;messages 2&#34;">
<g id="Group">
<path id="Vector" d="M44.175 40.075L45.15 47.975C45.4 50.05 43.175 51.5 41.4 50.425L30.925 44.2C29.775 44.2 28.65 44.125 27.55 43.975C29.4 41.8 30.5 39.05 30.5 36.075C30.5 28.975 24.35 23.225 16.7499 23.225C13.8499 23.225 11.1749 24.05 8.94991 25.5C8.87491 24.875 8.84991 24.25 8.84991 23.6C8.84991 12.225 18.7249 3 30.925 3C43.125 3 53 12.225 53 23.6C53 30.35 49.525 36.325 44.175 40.075Z" stroke="#292D32" stroke-width="5" stroke-linecap="round" stroke-linejoin="round"/>
<path id="Vector_2" d="M30.5 36.075C30.5 39.05 29.4 41.8003 27.55 43.9753C25.075 46.9753 21.15 48.9 16.75 48.9L10.225 52.775C9.125 53.45 7.725 52.525 7.875 51.25L8.5 46.3253C5.15 44.0003 3 40.275 3 36.075C3 31.675 5.35 27.8003 8.95 25.5003C11.175 24.0503 13.85 23.2253 16.75 23.2253C24.35 23.2253 30.5 28.975 30.5 36.075Z" stroke="#292D32" stroke-width="5" stroke-linecap="round" stroke-linejoin="round"/>
</g>
</g>
</svg>
