<svg width="50" height="49" viewBox="0 0 50 49" fill="none" xmlns="http://www.w3.org/2000/svg">
<g id="&#240;&#159;&#166;&#134; icon &#34;explore&#34;">
<path id="Vector" d="M38.5872 7.15963L38.4688 6.88334L38.2187 7.05009L34.2455 9.69926L34.0767 9.81181L34.152 10.0002L38.3644 20.5242L38.4489 20.7352L38.6669 20.6712L43.4684 19.2619L43.7388 19.1825L43.6278 18.9236L38.5872 7.15963ZM30.5002 12.5548L30.3858 12.2686L30.1294 12.4396L6.10333 28.4595L5.91972 28.5819L6.01842 28.7793L6.57768 29.8978L6.67121 30.0849L6.87186 30.0259L33.9993 22.0439L34.2628 21.9663L34.1609 21.7113L30.5002 12.5548ZM0.322305 27.0962L40.4045 0.374726L49.6593 21.9691L32.0932 27.1351L31.835 27.211L31.9298 27.4629L39.0204 46.3136L34.9548 47.8383L27.7396 28.6572L27.6579 28.44L27.4352 28.5054L24.1523 29.4689L24.0314 29.5044L23.988 29.6227L17.308 47.828L13.3176 46.1179L18.6832 31.4945L18.8542 31.0285L18.3779 31.1686L4.41264 35.2769L0.322305 27.0962Z" fill="black" stroke="black" stroke-width="0.5"/>
</g>
</svg>
