<svg width="50" height="50" viewBox="0 0 50 50" fill="none" xmlns="http://www.w3.org/2000/svg">
<g id="Vector">
<mask id="path-1-inside-1_155_842" fill="white">
<path d="M47.2222 21.4887V43.0555C47.2222 46.8908 44.1131 49.9999 40.2778 49.9999H31.9444C31.1774 49.9999 30.5555 49.3781 30.5555 48.611V31.9444C30.5555 31.1773 29.9337 30.5555 29.1667 30.5555H20.8333C20.0663 30.5555 19.4445 31.1773 19.4445 31.9444V48.611C19.4445 49.3781 18.8226 49.9999 18.0556 49.9999H9.72225C5.88694 49.9999 2.77781 46.8908 2.77781 43.0555V21.4887L2.27185 21.9054C1.67973 22.3931 0.804429 22.3083 0.316802 21.7162C-0.170824 21.1241 -0.086117 20.2488 0.506001 19.7612L24.1171 0.316763C24.6299 -0.105588 25.3701 -0.105588 25.8829 0.316763L49.494 19.7612C50.0861 20.2488 50.1708 21.1241 49.6832 21.7162C49.1956 22.3083 48.3203 22.3931 47.7281 21.9054L47.2222 21.4887ZM44.463 19.2165L25 3.18813L5.53698 19.2165C5.54922 19.2907 5.55559 19.3668 5.55559 19.4444V43.0555C5.55559 45.3567 7.42106 47.2221 9.72225 47.2221H16.6667V31.9444C16.6667 29.6432 18.5322 27.7777 20.8333 27.7777H29.1667C31.4678 27.7777 33.3333 29.6432 33.3333 31.9444V47.2221H40.2778C42.5789 47.2221 44.4444 45.3567 44.4444 43.0555V19.4444C44.4444 19.3668 44.4508 19.2907 44.463 19.2165Z"/>
</mask>
<path d="M47.2222 21.4887V43.0555C47.2222 46.8908 44.1131 49.9999 40.2778 49.9999H31.9444C31.1774 49.9999 30.5555 49.3781 30.5555 48.611V31.9444C30.5555 31.1773 29.9337 30.5555 29.1667 30.5555H20.8333C20.0663 30.5555 19.4445 31.1773 19.4445 31.9444V48.611C19.4445 49.3781 18.8226 49.9999 18.0556 49.9999H9.72225C5.88694 49.9999 2.77781 46.8908 2.77781 43.0555V21.4887L2.27185 21.9054C1.67973 22.3931 0.804429 22.3083 0.316802 21.7162C-0.170824 21.1241 -0.086117 20.2488 0.506001 19.7612L24.1171 0.316763C24.6299 -0.105588 25.3701 -0.105588 25.8829 0.316763L49.494 19.7612C50.0861 20.2488 50.1708 21.1241 49.6832 21.7162C49.1956 22.3083 48.3203 22.3931 47.7281 21.9054L47.2222 21.4887ZM44.463 19.2165L25 3.18813L5.53698 19.2165C5.54922 19.2907 5.55559 19.3668 5.55559 19.4444V43.0555C5.55559 45.3567 7.42106 47.2221 9.72225 47.2221H16.6667V31.9444C16.6667 29.6432 18.5322 27.7777 20.8333 27.7777H29.1667C31.4678 27.7777 33.3333 29.6432 33.3333 31.9444V47.2221H40.2778C42.5789 47.2221 44.4444 45.3567 44.4444 43.0555V19.4444C44.4444 19.3668 44.4508 19.2907 44.463 19.2165Z" fill="black"/>
<path d="M47.2222 21.4887L51.6721 16.0852L40.2222 6.65582V21.4887H47.2222ZM2.77781 21.4887H9.77781V6.65583L-1.67215 16.0852L2.77781 21.4887ZM2.27185 21.9054L6.7218 27.3089L6.72181 27.3089L2.27185 21.9054ZM0.316802 21.7162L5.72031 17.2663L5.72031 17.2663L0.316802 21.7162ZM0.506001 19.7612L-3.94395 14.3577L0.506001 19.7612ZM24.1171 0.316763L28.567 5.72027V5.72027L24.1171 0.316763ZM25.8829 0.316763L30.3329 -5.08675L25.8829 0.316763ZM49.494 19.7612L45.044 25.1647L49.494 19.7612ZM49.6832 21.7162L44.2797 17.2663L44.2797 17.2663L49.6832 21.7162ZM47.7281 21.9054L43.2782 27.3089L43.2782 27.3089L47.7281 21.9054ZM44.463 19.2165L51.3695 20.3567L52.0265 16.3771L48.913 13.813L44.463 19.2165ZM25 3.18813L29.45 -2.21539L25 -5.88005L20.55 -2.21539L25 3.18813ZM5.53698 19.2165L1.08703 13.813L-2.02652 16.3771L-1.36954 20.3567L5.53698 19.2165ZM16.6667 47.2221V54.2221H23.6667V47.2221H16.6667ZM33.3333 47.2221H26.3333V54.2221H33.3333V47.2221ZM40.2222 21.4887V43.0555H54.2222V21.4887H40.2222ZM40.2222 43.0555C40.2222 43.0608 40.2218 43.0588 40.2232 43.0517C40.2246 43.045 40.2268 43.038 40.2294 43.0317C40.232 43.0257 40.2343 43.0217 40.2358 43.0195C40.2372 43.0175 40.2381 43.0166 40.2385 43.0162C40.2388 43.0158 40.2397 43.0149 40.2418 43.0136C40.244 43.0121 40.248 43.0097 40.254 43.0072C40.2603 43.0045 40.2673 43.0023 40.274 43.0009C40.2811 42.9995 40.2831 42.9999 40.2778 42.9999V56.9999C47.9791 56.9999 54.2222 50.7568 54.2222 43.0555H40.2222ZM40.2778 42.9999H31.9444V56.9999H40.2778V42.9999ZM31.9444 42.9999C35.0434 42.9999 37.5555 45.5121 37.5555 48.611H23.5555C23.5555 53.2441 27.3114 56.9999 31.9444 56.9999V42.9999ZM37.5555 48.611V31.9444H23.5555V48.611H37.5555ZM37.5555 31.9444C37.5555 27.3113 33.7997 23.5555 29.1667 23.5555V37.5555C26.0677 37.5555 23.5555 35.0433 23.5555 31.9444H37.5555ZM29.1667 23.5555H20.8333V37.5555H29.1667V23.5555ZM20.8333 23.5555C16.2003 23.5555 12.4445 27.3113 12.4445 31.9444H26.4445C26.4445 35.0433 23.9323 37.5555 20.8333 37.5555V23.5555ZM12.4445 31.9444V48.611H26.4445V31.9444H12.4445ZM12.4445 48.611C12.4445 45.5121 14.9566 42.9999 18.0556 42.9999V56.9999C22.6886 56.9999 26.4445 53.2441 26.4445 48.611H12.4445ZM18.0556 42.9999H9.72225V56.9999H18.0556V42.9999ZM9.72225 42.9999C9.71689 42.9999 9.71894 42.9995 9.72603 43.0009C9.73271 43.0023 9.73972 43.0045 9.74602 43.0072C9.75203 43.0097 9.75601 43.0121 9.75819 43.0136C9.76025 43.0149 9.76117 43.0158 9.76154 43.0162C9.7619 43.0166 9.76279 43.0175 9.76418 43.0195C9.76565 43.0217 9.76803 43.0257 9.77057 43.0317C9.77324 43.038 9.77542 43.045 9.77679 43.0517C9.77824 43.0588 9.77781 43.0608 9.77781 43.0555H-4.22219C-4.22219 50.7568 2.02095 56.9999 9.72225 56.9999V42.9999ZM9.77781 43.0555V21.4887H-4.22219V43.0555H9.77781ZM-1.67215 16.0852L-2.17811 16.5019L6.72181 27.3089L7.22777 26.8923L-1.67215 16.0852ZM-2.1781 16.5019C0.214058 14.5319 3.7503 14.8741 5.72031 17.2663L-5.08671 26.1662C-2.14144 29.7426 3.14541 30.2542 6.7218 27.3089L-2.1781 16.5019ZM5.72031 17.2663C7.69033 19.6584 7.34811 23.1947 4.95595 25.1647L-3.94395 14.3577C-7.52035 17.3029 -8.03197 22.5898 -5.08671 26.1662L5.72031 17.2663ZM4.95595 25.1647L28.567 5.72027L19.6671 -5.08675L-3.94395 14.3577L4.95595 25.1647ZM28.567 5.72027C26.4951 7.42658 23.5049 7.42658 21.433 5.72027L30.3329 -5.08675C27.2352 -7.63775 22.7648 -7.63775 19.6671 -5.08675L28.567 5.72027ZM21.433 5.72027L45.044 25.1647L53.9439 14.3577L30.3329 -5.08675L21.433 5.72027ZM45.044 25.1647C42.6519 23.1947 42.3097 19.6584 44.2797 17.2663L55.0867 26.1662C58.032 22.5898 57.5203 17.3029 53.9439 14.3577L45.044 25.1647ZM44.2797 17.2663C46.2497 14.8741 49.7859 14.5319 52.1781 16.5019L43.2782 27.3089C46.8546 30.2542 52.1414 29.7426 55.0867 26.1662L44.2797 17.2663ZM52.1781 16.5019L51.6721 16.0852L42.7722 26.8923L43.2782 27.3089L52.1781 16.5019ZM48.913 13.813L29.45 -2.21539L20.55 8.59164L40.0131 24.62L48.913 13.813ZM20.55 -2.21539L1.08703 13.813L9.98693 24.62L29.45 8.59164L20.55 -2.21539ZM-1.36954 20.3567C-1.41928 20.0554 -1.44441 19.7502 -1.44441 19.4444H12.5556C12.5556 18.9833 12.5177 18.5259 12.4435 18.0763L-1.36954 20.3567ZM-1.44441 19.4444V43.0555H12.5556V19.4444H-1.44441ZM-1.44441 43.0555C-1.44441 49.2227 3.55507 54.2221 9.72225 54.2221V40.2221C11.2871 40.2221 12.5556 41.4907 12.5556 43.0555H-1.44441ZM9.72225 54.2221H16.6667V40.2221H9.72225V54.2221ZM23.6667 47.2221V31.9444H9.66668V47.2221H23.6667ZM23.6667 31.9444C23.6667 33.5092 22.3982 34.7777 20.8333 34.7777V20.7777C14.6662 20.7777 9.66668 25.7772 9.66668 31.9444H23.6667ZM20.8333 34.7777H29.1667V20.7777H20.8333V34.7777ZM29.1667 34.7777C27.6019 34.7777 26.3333 33.5092 26.3333 31.9444H40.3333C40.3333 25.7772 35.3338 20.7777 29.1667 20.7777V34.7777ZM26.3333 31.9444V47.2221H40.3333V31.9444H26.3333ZM33.3333 54.2221H40.2778V40.2221H33.3333V54.2221ZM40.2778 54.2221C46.4449 54.2221 51.4444 49.2227 51.4444 43.0555H37.4444C37.4444 41.4907 38.7129 40.2221 40.2778 40.2221V54.2221ZM51.4444 43.0555V19.4444H37.4444V43.0555H51.4444ZM51.4444 19.4444C51.4444 19.7504 51.4192 20.0556 51.3695 20.3567L37.5565 18.0763C37.4823 18.5257 37.4444 18.9832 37.4444 19.4444H51.4444Z" fill="black" mask="url(#path-1-inside-1_155_842)"/>
</g>
</svg>
