<svg width="52" height="52" viewBox="0 0 52 52" fill="none" xmlns="http://www.w3.org/2000/svg">
<g id="&#240;&#159;&#166;&#134; icon &#34;film reel&#34;">
<path id="Vector" d="M19.7519 1C9.39518 1 1 9.39363 1 19.7519C1 30.1103 9.39518 38.5039 19.7519 38.5039C30.1087 38.5039 38.5039 30.1103 38.5039 19.7519C38.5039 9.39363 30.1103 1 19.7519 1ZM19.7519 4.64872C22.6475 4.64872 23.9963 5.36755 23.9963 7.6519C23.9963 9.93626 20.6392 12.0834 19.7519 12.0834C18.8632 12.0834 15.5045 9.9347 15.5045 7.6519C15.5045 5.36911 16.8564 4.64872 19.7519 4.64872ZM7.23246 20.3741C5.05882 19.6693 4.79062 18.1662 5.68253 15.414C6.576 12.6572 7.67374 11.5922 9.84894 12.2955C12.0163 13.0002 13.0299 16.8564 12.7539 17.6999C12.4841 18.5435 9.4061 21.0773 7.23402 20.3757L7.23246 20.3741ZM16.3028 31.9767C15.0476 33.8884 13.5273 33.7606 11.0979 32.1794C8.67947 30.5983 7.94037 29.2589 9.18624 27.3472C10.4321 25.4324 14.4161 25.4683 15.1599 25.9532C15.9036 26.4382 17.5409 30.076 16.3028 31.9767ZM19.7519 22.5649C18.1989 22.5649 16.939 21.3066 16.939 19.7519C16.939 18.1973 18.1973 16.939 19.7519 16.939C21.3081 16.939 22.5649 18.1973 22.5649 19.7519C22.5649 21.3066 21.3081 22.5649 19.7519 22.5649ZM28.5666 31.9268C26.2089 33.5999 24.6902 33.7995 23.371 31.9377C22.0457 30.0775 23.5441 26.382 24.2614 25.8706C24.9865 25.3513 28.972 25.1642 30.2896 27.012C31.6119 28.8784 30.9289 30.2475 28.5666 31.9268ZM32.2621 20.3741C30.0916 21.0758 27.0135 18.5419 26.7438 17.6984C26.4647 16.8548 27.4813 12.9987 29.6456 12.2939C31.8224 11.5922 32.9201 12.6556 33.8136 15.4125C34.7055 18.1615 34.4357 19.6677 32.2636 20.3725L32.2621 20.3741ZM49.5764 46.9427L48.2666 50.8971C47.9516 50.7942 40.5855 48.2806 40.5855 41.6053C40.5855 33.7216 46.8336 31.866 46.8336 24.882C46.8336 21.7042 43.8756 18.3268 40.1084 15.3423C39.5361 12.6853 38.4602 10.2154 36.9789 8.04017C43.4811 12.0319 51 18.11 51 24.8836C51 29.2168 49.1585 31.9487 47.5321 34.3593C46.0368 36.5735 44.7504 38.4852 44.7504 41.6084C44.7504 45.2478 49.5234 46.9287 49.5732 46.9459L49.5764 46.9427Z" fill="black" stroke="black" stroke-width="0.5"/>
</g>
</svg>
