<svg width="50" height="50" viewBox="0 0 50 50" fill="none" xmlns="http://www.w3.org/2000/svg">
<g id="&#240;&#159;&#166;&#134; icon &#34;plus circle&#34;">
<path id="Vector" d="M25 0C20.0555 0 15.222 1.46622 11.1108 4.21326C6.99952 6.96029 3.79521 10.8648 1.90302 15.4329C0.0108321 20.0011 -0.484251 25.0277 0.480379 29.8773C1.44501 34.7268 3.82603 39.1814 7.32234 42.6777C10.8187 46.174 15.2732 48.555 20.1227 49.5196C24.9723 50.4842 29.9989 49.9892 34.5671 48.097C39.1352 46.2048 43.0397 43.0005 45.7867 38.8892C48.5338 34.778 50 29.9445 50 25C49.9925 18.3719 47.3562 12.0174 42.6694 7.33061C37.9826 2.64383 31.6281 0.00750187 25 0ZM25 46.1538C20.8162 46.1538 16.7263 44.9132 13.2476 42.5888C9.76883 40.2644 7.05749 36.9606 5.4564 33.0952C3.85532 29.2299 3.4364 24.9765 4.25263 20.8731C5.06885 16.7696 7.08356 13.0004 10.042 10.042C13.0004 7.08355 16.7697 5.06884 20.8731 4.25262C24.9765 3.43639 29.2299 3.85531 33.0952 5.45639C36.9606 7.05748 40.2644 9.76882 42.5888 13.2475C44.9132 16.7263 46.1538 20.8162 46.1538 25C46.1475 30.6084 43.9168 35.9853 39.951 39.951C35.9853 43.9168 30.6084 46.1475 25 46.1538ZM36.5385 25C36.5384 25.51 36.3358 25.9991 35.9752 26.3598C35.6145 26.7204 35.1254 26.923 34.6154 26.9231H26.9231V34.6154C26.9231 35.1254 26.7205 35.6146 26.3598 35.9752C25.9992 36.3358 25.51 36.5385 25 36.5385C24.49 36.5385 24.0008 36.3358 23.6402 35.9752C23.2795 35.6146 23.0769 35.1254 23.0769 34.6154V26.9231H15.3846C14.8746 26.9231 14.3854 26.7205 14.0248 26.3598C13.6642 25.9992 13.4615 25.51 13.4615 25C13.4615 24.49 13.6642 24.0008 14.0248 23.6402C14.3854 23.2795 14.8746 23.0769 15.3846 23.0769H23.0769V15.3846C23.0769 14.8746 23.2795 14.3854 23.6402 14.0248C24.0008 13.6641 24.49 13.4615 25 13.4615C25.51 13.4615 25.9992 13.6641 26.3598 14.0248C26.7205 14.3854 26.9231 14.8746 26.9231 15.3846V23.0769H34.6154C35.1254 23.0769 35.6145 23.2796 35.9752 23.6402C36.3358 24.0008 36.5384 24.49 36.5385 25Z" fill="black"/>
</g>
</svg>
