<svg width="47" height="33" viewBox="0 0 47 33" fill="none" xmlns="http://www.w3.org/2000/svg">
<path id="Vector" d="M35.2543 1.68348e-07H11.7508C9.81364 -0.000388411 7.90642 0.671916 6.19899 1.95706C4.49156 3.2422 3.0369 5.10031 1.9645 7.36595C0.892106 9.63159 0.235261 12.2345 0.0524407 14.9428C-0.130379 17.6512 0.1665 20.3811 0.916648 22.8893C1.6668 25.3976 2.84693 27.6065 4.352 29.3193C5.85706 31.0321 7.64035 32.1957 9.5431 32.7065C11.4458 33.2174 13.409 33.0595 15.2578 32.2471C17.1066 31.4347 18.7837 29.9928 20.1397 28.05H26.8603C28.2161 29.9926 29.893 31.4343 31.7416 32.2468C33.5901 33.0593 35.5531 33.2173 37.4556 32.7069C39.3582 32.1964 41.1414 31.0333 42.6465 29.321C44.1516 27.6087 45.3319 25.4004 46.0824 22.8927C46.8328 20.3849 47.1301 17.6555 46.9479 14.9473C46.7656 12.2392 46.1094 9.63634 45.0376 7.37046C43.9659 5.10458 42.5119 3.24596 40.805 1.96004C39.0981 0.674127 37.1913 0.000801815 35.2543 1.68348e-07ZM18.2129 17.7375C18.2129 18.0657 18.12 18.3805 17.9548 18.6125C17.7895 18.8446 17.5654 18.975 17.3317 18.975H13.5132V24.3375C13.5132 24.6657 13.4204 24.9805 13.2551 25.2125C13.0899 25.4446 12.8657 25.575 12.632 25.575H10.8697C10.6359 25.575 10.4118 25.4446 10.2466 25.2125C10.0813 24.9805 9.98847 24.6657 9.98847 24.3375V18.975H6.16999C5.93628 18.975 5.71215 18.8446 5.5469 18.6125C5.38164 18.3805 5.2888 18.0657 5.2888 17.7375V15.2625C5.2888 14.9343 5.38164 14.6195 5.5469 14.3875C5.71215 14.1554 5.93628 14.025 6.16999 14.025H9.98847V8.6625C9.98847 8.33429 10.0813 8.01953 10.2466 7.78746C10.4118 7.55538 10.6359 7.425 10.8697 7.425H12.632C12.8657 7.425 13.0899 7.55538 13.2551 7.78746C13.4204 8.01953 13.5132 8.33429 13.5132 8.6625V14.025H17.3317C17.5654 14.025 17.7895 14.1554 17.9548 14.3875C18.12 14.6195 18.2129 14.9343 18.2129 15.2625V17.7375ZM34.0742 25.575C33.4933 25.575 32.9254 25.3331 32.4424 24.8798C31.9593 24.4266 31.5829 23.7823 31.3605 23.0286C31.1382 22.2748 31.0801 21.4454 31.1934 20.6453C31.3067 19.8451 31.5865 19.1101 31.9973 18.5332C32.4081 17.9563 32.9314 17.5634 33.5012 17.4043C34.071 17.2451 34.6616 17.3268 35.1983 17.639C35.735 17.9512 36.1938 18.4799 36.5165 19.1583C36.8393 19.8366 37.0115 20.6342 37.0115 21.45C37.0115 22.544 36.7021 23.5932 36.1512 24.3668C35.6004 25.1404 34.8533 25.575 34.0742 25.575ZM38.7739 15.675C38.193 15.675 37.6251 15.4331 37.142 14.9798C36.659 14.5266 36.2825 13.8823 36.0602 13.1286C35.8379 12.3748 35.7797 11.5454 35.8931 10.7453C36.0064 9.94508 36.2861 9.21008 36.6969 8.63318C37.1077 8.05629 37.6311 7.66342 38.2009 7.50426C38.7706 7.3451 39.3612 7.42678 39.898 7.739C40.4347 8.05121 40.8934 8.57992 41.2162 9.25827C41.5389 9.93663 41.7112 10.7342 41.7112 11.55C41.7112 12.644 41.4017 13.6932 40.8509 14.4668C40.3 15.2404 39.5529 15.675 38.7739 15.675Z" fill="black"/>
</svg>
