<svg width="40" height="40" viewBox="0 0 40 40" fill="none" xmlns="http://www.w3.org/2000/svg">
<path id="Vector" d="M0 0V11.4286H11.4286V0H0ZM10.7143 10.7143H0.714286V0.714286H10.7143V10.7143ZM14.2857 0V11.4286H25.7143V0H14.2857ZM25 10.7143H15V0.714286H25V10.7143ZM28.5714 0V11.4286H40V0H28.5714ZM39.2857 10.7143H29.2857V0.714286H39.2857V10.7143ZM0 14.2857V25.7143H11.4286V14.2857H0ZM10.7143 25H0.714286V15H10.7143V25ZM14.2857 14.2857V25.7143H25.7143V14.2857H14.2857ZM25 25H15V15H25V25ZM28.5714 14.2857V25.7143H40V14.2857H28.5714ZM39.2857 25H29.2857V15H39.2857V25ZM0 28.5714V40H11.4286V28.5714H0ZM10.7143 39.2857H0.714286V29.2857H10.7143V39.2857ZM14.2857 28.5714V40H25.7143V28.5714H14.2857ZM25 39.2857H15V29.2857H25V39.2857ZM28.5714 28.5714V40H40V28.5714H28.5714Z" fill="black"/>
</svg>
