<svg width="41" height="47" viewBox="0 0 41 47" fill="none" xmlns="http://www.w3.org/2000/svg">
<path id="Vector" d="M20.5 47C23.7324 47 26.3544 44.37 26.3544 41.125H14.6456C14.6456 44.37 17.2676 47 20.5 47ZM40.212 33.2571C38.4439 31.3514 35.1355 28.4846 35.1355 19.0938C35.1355 11.9611 30.1496 6.25137 23.4267 4.85055V2.9375C23.4267 1.31545 22.1162 0 20.5 0C18.8838 0 17.5733 1.31545 17.5733 2.9375V4.85055C10.8504 6.25137 5.86451 11.9611 5.86451 19.0938C5.86451 28.4846 2.55615 31.3514 0.78803 33.2571C0.238924 33.8492 -0.0045126 34.5569 6.32742e-05 35.25C0.0101302 36.7555 1.18796 38.1875 2.93778 38.1875H38.0622C39.812 38.1875 40.9908 36.7555 40.9999 35.25C41.0045 34.5569 40.7611 33.8483 40.212 33.2571Z" fill="black"/>
</svg>
