<svg width="42" height="44" viewBox="0 0 42 44" fill="none" xmlns="http://www.w3.org/2000/svg">
<mask id="path-1-inside-1_1_24" fill="white">
<path d="M41.4291 38.0411L33.2497 29.474C32.8806 29.0873 32.3802 28.8724 31.8552 28.8724H30.5181C32.7822 25.8388 34.1275 22.0241 34.1275 17.8733C34.1275 7.99992 26.4895 0 17.0641 0C7.63875 0 0 7.99992 0 17.8733C0 27.7466 7.63793 35.7466 17.0641 35.7466C21.0263 35.7466 24.6693 34.3372 27.565 31.9653V33.3661C27.565 33.9161 27.77 34.4403 28.1392 34.827L36.3185 43.3941C37.0896 44.202 38.3365 44.202 39.0994 43.3941L41.4209 40.9621C42.192 40.1543 42.192 38.8489 41.4291 38.0411ZM17.0641 30.2466C10.5394 30.2466 5.25164 24.7173 5.25164 17.8733C5.25164 11.0387 10.5304 5.5 17.0641 5.5C23.5889 5.5 28.8766 11.0292 28.8766 17.8733C28.8766 24.7079 23.5979 30.2466 17.0641 30.2466ZM17.0658 9.625C13.7205 9.625 11.0086 12.4652 11.0086 15.9698C11.0086 18.8023 14.9674 23.9662 16.4842 25.8405C16.5553 25.9297 16.6443 26.0014 16.7448 26.0507C16.8453 26.0999 16.9548 26.1254 17.0658 26.1254C17.1767 26.1254 17.2863 26.0999 17.3868 26.0507C17.4873 26.0014 17.5762 25.9297 17.6474 25.8405C19.1641 23.9662 23.123 18.8031 23.123 15.9698C23.123 12.4652 20.411 9.625 17.0658 9.625ZM17.0658 17.875C15.978 17.875 15.097 16.9512 15.097 15.8125C15.097 14.673 15.9789 13.75 17.0658 13.75C18.1527 13.75 19.0345 14.673 19.0345 15.8125C19.0345 16.9512 18.1527 17.875 17.0658 17.875Z"/>
</mask>
<path d="M41.4291 38.0411L33.2497 29.474C32.8806 29.0873 32.3802 28.8724 31.8552 28.8724H30.5181C32.7822 25.8388 34.1275 22.0241 34.1275 17.8733C34.1275 7.99992 26.4895 0 17.0641 0C7.63875 0 0 7.99992 0 17.8733C0 27.7466 7.63793 35.7466 17.0641 35.7466C21.0263 35.7466 24.6693 34.3372 27.565 31.9653V33.3661C27.565 33.9161 27.77 34.4403 28.1392 34.827L36.3185 43.3941C37.0896 44.202 38.3365 44.202 39.0994 43.3941L41.4209 40.9621C42.192 40.1543 42.192 38.8489 41.4291 38.0411ZM17.0641 30.2466C10.5394 30.2466 5.25164 24.7173 5.25164 17.8733C5.25164 11.0387 10.5304 5.5 17.0641 5.5C23.5889 5.5 28.8766 11.0292 28.8766 17.8733C28.8766 24.7079 23.5979 30.2466 17.0641 30.2466ZM17.0658 9.625C13.7205 9.625 11.0086 12.4652 11.0086 15.9698C11.0086 18.8023 14.9674 23.9662 16.4842 25.8405C16.5553 25.9297 16.6443 26.0014 16.7448 26.0507C16.8453 26.0999 16.9548 26.1254 17.0658 26.1254C17.1767 26.1254 17.2863 26.0999 17.3868 26.0507C17.4873 26.0014 17.5762 25.9297 17.6474 25.8405C19.1641 23.9662 23.123 18.8031 23.123 15.9698C23.123 12.4652 20.411 9.625 17.0658 9.625ZM17.0658 17.875C15.978 17.875 15.097 16.9512 15.097 15.8125C15.097 14.673 15.9789 13.75 17.0658 13.75C18.1527 13.75 19.0345 14.673 19.0345 15.8125C19.0345 16.9512 18.1527 17.875 17.0658 17.875Z" fill="#FFFBFB"/>
<path d="M41.4291 38.0411L42.8832 36.6679L42.8756 36.66L41.4291 38.0411ZM33.2497 29.474L31.803 30.8549L31.8032 30.8551L33.2497 29.474ZM30.5181 28.8724L28.9153 27.6762L26.5298 30.8724H30.5181V28.8724ZM34.1275 17.8733H36.1275H34.1275ZM27.565 31.9653H29.565V27.7418L26.2976 30.4181L27.565 31.9653ZM28.1392 34.827L26.6925 36.208L26.6926 36.2081L28.1392 34.827ZM36.3185 43.3941L37.7652 42.0132L37.7651 42.013L36.3185 43.3941ZM39.0994 43.3941L37.6526 42.0132L37.6453 42.0209L39.0994 43.3941ZM41.4209 40.9621L39.9742 39.5812L41.4209 40.9621ZM16.4842 25.8405L18.0477 24.5933L18.0389 24.5824L16.4842 25.8405ZM17.0658 26.1254V24.1254V26.1254ZM17.6474 25.8405L16.0926 24.5824L16.0839 24.5933L17.6474 25.8405ZM42.8756 36.66L34.6963 28.0929L31.8032 30.8551L39.9825 39.4222L42.8756 36.66ZM34.6964 28.093C33.9549 27.3162 32.9339 26.8724 31.8552 26.8724V30.8724C31.8437 30.8724 31.8309 30.8698 31.8196 30.865C31.8142 30.8627 31.81 30.8602 31.8071 30.8581C31.8041 30.856 31.8028 30.8547 31.803 30.8549L34.6964 28.093ZM31.8552 26.8724H30.5181V30.8724H31.8552V26.8724ZM32.1209 30.0687C34.6391 26.6945 36.1275 22.4613 36.1275 17.8733H32.1275C32.1275 21.5868 30.9252 24.9832 28.9153 27.6762L32.1209 30.0687ZM36.1275 17.8733C36.1275 6.98373 27.6805 -2 17.0641 -2V2C25.2986 2 32.1275 9.01611 32.1275 17.8733H36.1275ZM17.0641 -2C6.44795 -2 -2 6.9836 -2 17.8733H2C2 9.01624 8.82955 2 17.0641 2V-2ZM-2 17.8733C-2 28.7629 6.44707 37.7466 17.0641 37.7466V33.7466C8.82879 33.7466 2 26.7304 2 17.8733H-2ZM17.0641 37.7466C21.5123 37.7466 25.5982 36.1616 28.8323 33.5125L26.2976 30.4181C23.7403 32.5128 20.5402 33.7466 17.0641 33.7466V37.7466ZM25.565 31.9653V33.3661H29.565V31.9653H25.565ZM25.565 33.3661C25.565 34.4102 25.9544 35.4348 26.6925 36.208L29.5859 33.4461C29.5856 33.4458 29.565 33.422 29.565 33.3661H25.565ZM26.6926 36.2081L34.8719 44.7752L37.7651 42.013L29.5858 33.4459L26.6926 36.2081ZM34.8718 44.7751C36.4265 46.4039 38.9971 46.4153 40.5534 44.7673L37.6453 42.0209C37.6431 42.0233 37.6495 42.0163 37.6653 42.0095C37.6799 42.0033 37.6961 42 37.712 42C37.728 42 37.7425 42.0033 37.7543 42.0083C37.7673 42.0138 37.7705 42.0187 37.7652 42.0132L34.8718 44.7751ZM40.5461 44.7751L42.8676 42.3431L39.9742 39.5812L37.6527 42.0132L40.5461 44.7751ZM42.8676 42.3431C44.3754 40.7634 44.3749 38.2475 42.8831 36.6679L39.975 39.4143C39.9824 39.4221 40.0003 39.4476 40.0002 39.4977C40.0001 39.5472 39.9826 39.5723 39.9742 39.5812L42.8676 42.3431ZM17.0641 28.2466C11.7294 28.2466 7.25164 23.7002 7.25164 17.8733H3.25164C3.25164 25.7345 9.34938 32.2466 17.0641 32.2466V28.2466ZM7.25164 17.8733C7.25164 12.0538 11.7223 7.5 17.0641 7.5V3.5C9.33842 3.5 3.25164 10.0235 3.25164 17.8733H7.25164ZM17.0641 7.5C22.3989 7.5 26.8766 12.0464 26.8766 17.8733H30.8766C30.8766 10.0121 24.7789 3.5 17.0641 3.5V7.5ZM26.8766 17.8733C26.8766 23.6928 22.406 28.2466 17.0641 28.2466V32.2466C24.7899 32.2466 30.8766 25.723 30.8766 17.8733H26.8766ZM17.0658 7.625C12.5297 7.625 9.00859 11.449 9.00859 15.9698H13.0086C13.0086 13.4815 14.9114 11.625 17.0658 11.625V7.625ZM9.00859 15.9698C9.00859 17.0849 9.3821 18.2373 9.81557 19.2383C10.2651 20.2762 10.8637 21.3397 11.4835 22.3275C12.7244 24.305 14.1499 26.1354 14.9295 27.0987L18.0389 24.5824C17.3017 23.6714 15.9894 21.9827 14.8717 20.2014C14.3123 19.3099 13.8263 18.4342 13.4862 17.6487C13.1299 16.8261 13.0086 16.2708 13.0086 15.9698H9.00859ZM14.9207 27.0878C15.1727 27.4036 15.4936 27.6649 15.8651 27.8468L17.6245 24.2545C17.795 24.338 17.938 24.4558 18.0476 24.5933L14.9207 27.0878ZM15.8651 27.8468C16.2369 28.0289 16.6472 28.1254 17.0658 28.1254V24.1254C17.2625 24.1254 17.4536 24.1708 17.6245 24.2545L15.8651 27.8468ZM17.0658 28.1254C17.4844 28.1254 17.8946 28.0289 18.2665 27.8468L16.5071 24.2545C16.678 24.1708 16.869 24.1254 17.0658 24.1254V28.1254ZM18.2665 27.8468C18.638 27.6649 18.9589 27.4036 19.2108 27.0878L16.0839 24.5933C16.1936 24.4558 16.3366 24.338 16.5071 24.2545L18.2665 27.8468ZM19.2021 27.0987C19.9816 26.1355 21.4071 24.3053 22.648 22.3279C23.2679 21.3401 23.8665 20.2766 24.316 19.2386C24.7495 18.2376 25.123 17.0851 25.123 15.9698H21.123C21.123 16.2711 21.0016 16.8266 20.6454 17.6491C20.3052 18.4346 19.8193 19.3103 19.2599 20.2017C18.1422 21.9828 16.83 23.6713 16.0927 24.5824L19.2021 27.0987ZM25.123 15.9698C25.123 11.449 21.6019 7.625 17.0658 7.625V11.625C19.2201 11.625 21.123 13.4815 21.123 15.9698H25.123ZM17.0658 15.875C17.0801 15.875 17.0966 15.8786 17.1097 15.8844C17.1211 15.8895 17.1235 15.8932 17.1204 15.89C17.114 15.8832 17.097 15.8601 17.097 15.8125H13.097C13.097 17.9665 14.7863 19.875 17.0658 19.875V15.875ZM17.097 15.8125C17.097 15.7648 17.114 15.7417 17.1203 15.7351C17.1234 15.7319 17.121 15.7356 17.1097 15.7406C17.0967 15.7464 17.0802 15.75 17.0658 15.75V11.75C14.7882 11.75 13.097 13.6565 13.097 15.8125H17.097ZM17.0658 15.75C17.0514 15.75 17.0349 15.7464 17.0219 15.7406C17.0106 15.7356 17.0082 15.7319 17.0112 15.7351C17.0176 15.7417 17.0345 15.7648 17.0345 15.8125H21.0345C21.0345 13.6565 19.3434 11.75 17.0658 11.75V15.75ZM17.0345 15.8125C17.0345 15.8595 17.0178 15.8827 17.011 15.8898C17.0078 15.8931 17.0101 15.8895 17.0214 15.8844C17.0344 15.8787 17.0511 15.875 17.0658 15.875V19.875C19.3439 19.875 21.0345 17.967 21.0345 15.8125H17.0345Z" fill="black" mask="url(#path-1-inside-1_1_24)"/>
</svg>
